Coordinates
version=1
nRows=7
nColumns=40
inDegrees=yes

Units are S.I. units (second, meters, Newtons, ...)
If the header above contains a line with 'inDegrees', this indicates whether rotational values are in degrees (yes) or radians (no).

endheader
time	pelvis_tilt	pelvis_list	pelvis_rotation	pelvis_tx	pelvis_ty	pelvis_tz	hip_flexion_r	hip_adduction_r	hip_rotation_r	knee_angle_r	knee_angle_r_beta	ankle_angle_r	subtalar_angle_r	mtp_angle_r	hip_flexion_l	hip_adduction_l	hip_rotation_l	knee_angle_l	knee_angle_l_beta	ankle_angle_l	subtalar_angle_l	mtp_angle_l	lumbar_extension	lumbar_bending	lumbar_rotation	arm_flex_r	arm_add_r	arm_rot_r	elbow_flex_r	pro_sup_r	wrist_flex_r	wrist_dev_r	arm_flex_l	arm_add_l	arm_rot_l	elbow_flex_l	pro_sup_l	wrist_flex_l	wrist_dev_l
      6.62500000	    -18.46862344	     -2.11848911	     -1.22649051	     -0.39027045	      0.82761552	     -0.78988200	     64.47520035	      2.80523861	     -8.09155542	     81.19856495	      1.41718231	     27.63900489	      0.00000000	      0.00000000	     46.07334273	    -11.16153147	     -7.95398741	    114.48626249	      1.99816223	    -25.82687609	      0.00000000	      0.00000000	     -3.78289606	      8.91952576	     10.37956722	     89.96870629	    -17.99218792	     12.89786102	     49.58480578	     74.69279038	      0.00000000	      0.00000000	     89.96703844	     -1.43523571	     12.19737548	     47.93939216	     79.39784016	      0.00000000	      0.00000000
      6.63000000	    -18.46811916	     -2.12071509	     -1.20611208	     -0.39032255	      0.82866960	     -0.78983582	     64.42685799	      2.80426355	     -8.08977454	     81.12732304	      1.41593890	     27.61688582	      0.00000000	      0.00000000	     46.08999333	    -11.15519825	     -7.99806061	    114.44189379	      1.99738785	    -25.77716898	      0.00000000	      0.00000000	     -3.76858361	      8.91338478	     10.37515051	     89.96866724	    -18.00711766	     12.88680678	     49.59942235	     74.70014565	      0.00000000	      0.00000000	     89.96698275	     -1.42223573	     12.19675200	     47.96550293	     79.40192957	      0.00000000	      0.00000000
      6.63500000	    -18.45676021	     -2.08362405	     -1.15624037	     -0.39032529	      0.82986204	     -0.78985201	     64.25666192	      2.76789430	     -8.05660008	     80.78432597	      1.40995247	     27.50449929	      0.00000000	      0.00000000	     46.07082363	    -11.07311890	     -8.06021941	    114.39395200	      1.99655111	    -25.58918145	      0.00000000	      0.00000000	     -3.75141739	      8.85734646	     10.35500459	     89.96858917	    -18.06271825	     12.89948459	     49.54644771	     74.73065975	      0.00000000	      0.00000000	     89.96693910	     -1.38117192	     12.25573859	     47.92379730	     79.42080229	      0.00000000	      0.00000000
      6.64000000	    -18.42433126	     -2.06190199	     -1.11525842	     -0.39021041	      0.83100184	     -0.78986308	     64.10990516	      2.74063996	     -8.03728996	     80.57554738	      1.40630860	     27.39991313	      0.00000000	      0.00000000	     45.98851321	    -11.01789099	     -8.10533446	    114.31826881	      1.99523019	    -25.36868701	      0.00000000	      0.00000000	     -3.74158829	      8.82309581	     10.33521658	     89.96850252	    -18.10200661	     12.93131478	     49.49747845	     74.77411490	      0.00000000	      0.00000000	     89.96692353	     -1.34675793	     12.30559189	     47.87750073	     79.44175197	      0.00000000	      0.00000000
      6.64500000	    -18.28395052	     -1.99810538	     -1.15690976	     -0.39008442	      0.83239041	     -0.78978518	     63.86329443	      2.75962206	     -7.95666704	     80.39796218	      1.40320915	     27.23608157	      0.00000000	      0.00000000	     45.72935853	    -10.98028677	     -8.26650663	    114.25273032	      1.99408632	    -24.79981274	      0.00000000	      0.00000000	     -3.87475189	      8.74795738	     10.43206138	     89.96849469	    -18.16352135	     12.95774389	     49.46640747	     74.95913061	      0.00000000	      0.00000000	     89.96701267	     -1.32316424	     12.43677851	     47.81465352	     79.53161831	      0.00000000	      0.00000000
      6.65000000	    -18.29134020	     -1.99693078	     -1.12926772	     -0.38999150	      0.83319976	     -0.78966950	     63.82818868	      2.75482817	     -7.95549175	     80.35334019	      1.40243035	     27.22637169	      0.00000000	      0.00000000	     45.72573970	    -10.98063279	     -8.29015503	    114.24174167	      1.99389454	    -24.78579241	      0.00000000	      0.00000000	     -3.82239596	      8.74224731	     10.42214310	     89.96845091	    -18.17674047	     12.94155522	     49.48372367	     74.96379257	      0.00000000	      0.00000000	     89.96692501	     -1.31148288	     12.43081269	     47.83983547	     79.53347655	      0.00000000	      0.00000000
      6.65500000	    -18.28426701	     -1.97102616	     -1.08133467	     -0.39004354	      0.83465261	     -0.78977299	     63.63871066	      2.70429758	     -7.95464520	     79.94431431	      1.39529150	     27.12021328	      0.00000000	      0.00000000	     45.71826503	    -10.89022951	     -8.33837659	    114.16368683	      1.99253222	    -24.64558140	      0.00000000	      0.00000000	     -3.81368099	      8.69013724	     10.39366209	     89.96835093	    -18.23262498	     12.95282776	     49.41463117	     74.99988479	      0.00000000	      0.00000000	     89.96689070	     -1.25865494	     12.46679457	     47.79926549	     79.54886395	      0.00000000	      0.00000000
